<svg xmlns="http://www.w3.org/2000/svg" width="17.78" height="17.78" viewBox="0 0 17.78 17.78">
  <path id="Path_70" data-name="Path 70" d="M8.89,38.773a2.117,2.117,0,1,0,2.118,2.117A2.117,2.117,0,0,0,8.89,38.773Zm4.949-1.627a2.143,2.143,0,0,0-1.207-1.207,14.085,14.085,0,0,0-3.743-.255,13.98,13.98,0,0,0-3.743.255A2.143,2.143,0,0,0,3.94,37.146a14.112,14.112,0,0,0-.255,3.744,14.057,14.057,0,0,0,.257,3.744,2.143,2.143,0,0,0,1.207,1.207,14.086,14.086,0,0,0,3.743.255,13.975,13.975,0,0,0,3.743-.255,2.143,2.143,0,0,0,1.207-1.207A14,14,0,0,0,14.1,40.89a14.005,14.005,0,0,0-.255-3.744Zm-4.949,7a3.25,3.25,0,1,1,2.3-.952,3.254,3.254,0,0,1-2.3.952Zm3.389-5.886a.755.755,0,1,1,.538-.222.76.76,0,0,1-.538.222ZM15.875,32H1.9A1.9,1.9,0,0,0,0,33.9v13.97A1.9,1.9,0,0,0,1.9,49.78h13.97a1.905,1.905,0,0,0,1.9-1.905V33.9A1.9,1.9,0,0,0,15.875,32ZM15.2,43.509a3.776,3.776,0,0,1-1.026,2.659,3.778,3.778,0,0,1-2.659,1.026c-1.048.059-4.191.059-5.239,0a3.783,3.783,0,0,1-2.659-1.026,3.765,3.765,0,0,1-1.026-2.659c-.059-1.049-.059-4.191,0-5.239a3.764,3.764,0,0,1,1.026-2.659,3.785,3.785,0,0,1,2.659-1.023c1.048-.059,4.191-.059,5.239,0a3.779,3.779,0,0,1,2.659,1.026A3.778,3.778,0,0,1,15.2,38.275C15.255,39.32,15.255,42.46,15.2,43.509Z" transform="translate(0 -32)" fill="#ceb068" stroke="#000" stroke-width="0"/>
</svg>
