<svg xmlns="http://www.w3.org/2000/svg" width="25.287" height="17.78" viewBox="0 0 25.287 17.78">
  <path id="Path_71" data-name="Path 71" d="M39.692,66.782a3.177,3.177,0,0,0-2.236-2.25C35.484,64,27.577,64,27.577,64s-7.907,0-9.88.532a3.177,3.177,0,0,0-2.236,2.25,35.775,35.775,0,0,0,0,12.252A3.13,3.13,0,0,0,17.7,81.248c1.972.532,9.88.532,9.88.532s7.907,0,9.88-.532a3.13,3.13,0,0,0,2.236-2.214,35.775,35.775,0,0,0,0-12.252Zm-14.7,9.886v-7.52l6.609,3.76Z" transform="translate(-14.933 -64)" fill="#ceb068" stroke="#000" stroke-width="0"/>
</svg>
