<svg xmlns="http://www.w3.org/2000/svg" width="21.855" height="22.503" viewBox="0 0 21.855 22.503">
  <path id="Path_98" data-name="Path 98" d="M207.721,197.252l9.06-10.8a.274.274,0,0,0-.211-.452h-2.754a.562.562,0,0,0-.425.2l-7.472,8.908-7.472-8.908a.552.552,0,0,0-.425-.2h-2.754a.274.274,0,0,0-.211.452l9.06,10.8-9.06,10.8a.274.274,0,0,0,.211.452h2.754a.562.562,0,0,0,.425-.2l7.472-8.908,7.472,8.908a.552.552,0,0,0,.425.2h2.754a.274.274,0,0,0,.211-.452Z" transform="translate(-194.992 -186)" fill="#eee" stroke="#000" stroke-width="0"/>
</svg>
