<svg xmlns="http://www.w3.org/2000/svg" xmlns:xlink="http://www.w3.org/1999/xlink" width="78.056" height="77.26" viewBox="0 0 78.056 77.26">
  <defs>
    <filter id="Path_12" x="0" y="0.669" width="78.056" height="76.591" filterUnits="userSpaceOnUse">
      <feOffset dy="3" input="SourceAlpha"/>
      <feGaussianBlur stdDeviation="3" result="blur"/>
      <feFlood flood-opacity="0.161"/>
      <feComposite operator="in" in2="blur"/>
      <feComposite in="SourceGraphic"/>
    </filter>
  </defs>
  <g id="family" transform="translate(3.014)">
    <rect id="Rectangle_4" data-name="Rectangle 4" width="71.203" height="71.203" fill="none"/>
    <g transform="matrix(1, 0, 0, 1, -3.01, 0)" filter="url(#Path_12)">
      <path id="Path_12-2" data-name="Path 12" d="M43.014,7.859a5.859,5.859,0,1,1,5.859,5.859A5.839,5.839,0,0,1,43.014,7.859ZM54.732,60.591V43.014h7.324L54.615,20.661a5.887,5.887,0,0,0-5.566-4.014H48.7a5.859,5.859,0,0,0-5.566,4.014L40.612,28.22a10.213,10.213,0,0,1,5.332,8.935V60.591ZM32.76,29.831a4.394,4.394,0,1,0-4.394-4.394A4.388,4.388,0,0,0,32.76,29.831ZM12.253,13.718A5.859,5.859,0,1,0,6.394,7.859,5.839,5.839,0,0,0,12.253,13.718Zm5.859,46.873V40.084h4.394V22.507a5.876,5.876,0,0,0-5.859-5.859H7.859A5.876,5.876,0,0,0,2,22.507V40.084H6.394V60.591Zm19.042,0V48.873h2.93V37.155A4.426,4.426,0,0,0,35.69,32.76H29.831a4.426,4.426,0,0,0-4.394,4.394V48.873h2.93V60.591Z" transform="translate(7 4.67)" fill="#ceb068"/>
    </g>
  </g>
</svg>
