<svg xmlns="http://www.w3.org/2000/svg" width="25.257" height="22.226" viewBox="0 0 25.257 22.226">
  <path id="Path_97" data-name="Path 97" d="M137,160H112.253a.253.253,0,0,0-.253.253v2.021a.253.253,0,0,0,.253.253H137a.253.253,0,0,0,.253-.253v-2.021A.253.253,0,0,0,137,160Zm0,19.7H112.253a.253.253,0,0,0-.253.253v2.021a.253.253,0,0,0,.253.253H137a.253.253,0,0,0,.253-.253v-2.021A.253.253,0,0,0,137,179.7Zm0-9.85H112.253a.253.253,0,0,0-.253.253v2.021a.253.253,0,0,0,.253.253H137a.253.253,0,0,0,.253-.253V170.1A.253.253,0,0,0,137,169.85Z" transform="translate(-112 -160)" fill="#eee" stroke="#000" stroke-width="0"/>
</svg>
