<svg xmlns="http://www.w3.org/2000/svg" width="149.925" height="46.206" viewBox="0 0 149.925 46.206">
  <g id="Logo" transform="translate(-879.55 -189.535)">
    <g id="Polygon_1" data-name="Polygon 1" transform="translate(925.774 233.804) rotate(180)" fill="none">
      <path d="M22.887,0,45.774,33.59H0Z" stroke="none"/>
      <path d="M 22.88701057434082 3.551856994628906 L 3.782886505126953 31.58956527709961 L 41.99113464355469 31.58956527709961 L 22.88701057434082 3.551856994628906 M 22.88701057434082 -3.814697265625e-06 L 45.77402114868164 33.58956527709961 L 0 33.58956527709961 L 22.88701057434082 -3.814697265625e-06 Z" stroke="none" fill="#ceb068"/>
    </g>
    <path id="Path_1" data-name="Path 1" d="M882.166,200.551l5.964-9.865h33.159l5.836,9.888" transform="translate(-1.76 -0.151)" fill="none" stroke="#ceb068" stroke-width="2"/>
    <path id="Path_2" data-name="Path 2" d="M922.07,242.65l14.991,33.036,14.932-33.036" transform="translate(-34.18 -42.369)" fill="none" stroke="#ceb068" stroke-width="2"/>
    <line id="Line_4" data-name="Line 4" x1="1.5" y1="9.94" transform="translate(886.471 190.5)" fill="none" stroke="#ceb068" stroke-width="2"/>
    <path id="Path_3" data-name="Path 3" d="M8,10.019,9.707.1" transform="translate(909.813 190.456)" fill="none" stroke="#ceb068" stroke-width="2"/>
    <path id="Path_4" data-name="Path 4" d="M922.5,201.469l14.988-9.746,14.863,9.746" transform="translate(-34.529 -0.993)" fill="none" stroke="#ceb068" stroke-width="2"/>
    <path id="Path_6" data-name="Path 6" d="M914.5,190.784l16.517,9.859,16.454-9.859" transform="translate(-28.029 -0.23)" fill="none" stroke="#ceb068" stroke-width="2"/>
  </g>
  <path id="Path_95" data-name="Path 95" d="M12.6-2.775V0H2.013V-18.075H5.375v15.3Zm9.175.063a4.441,4.441,0,0,0,1.744-.325,3.574,3.574,0,0,0,1.294-.913,4.036,4.036,0,0,0,.806-1.425A5.868,5.868,0,0,0,25.9-7.25V-18.075h3.362V-7.25a8.346,8.346,0,0,1-.519,2.981,6.783,6.783,0,0,1-1.487,2.363A6.749,6.749,0,0,1,24.9-.356,8.336,8.336,0,0,1,21.775.2a8.372,8.372,0,0,1-3.138-.556,6.749,6.749,0,0,1-2.356-1.55,6.783,6.783,0,0,1-1.487-2.363,8.346,8.346,0,0,1-.519-2.981V-18.075h3.363V-7.263a5.868,5.868,0,0,0,.281,1.875,4.049,4.049,0,0,0,.813,1.431,3.6,3.6,0,0,0,1.3.919A4.441,4.441,0,0,0,21.775-2.713ZM47.75,0H44.4a.832.832,0,0,1-.556-.175,1.439,1.439,0,0,1-.331-.4L39.325-7.513a2.48,2.48,0,0,1-.237.537l-4.013,6.4a2.56,2.56,0,0,1-.344.394A.711.711,0,0,1,34.225,0H31.087l6-9.3-5.762-8.775h3.35a1.027,1.027,0,0,1,.506.094.946.946,0,0,1,.294.306l4.113,6.625a5.335,5.335,0,0,1,.3-.625l3.775-5.938a1.064,1.064,0,0,1,.3-.35.709.709,0,0,1,.412-.113h3.213L41.775-9.438ZM57.1-2.713a4.441,4.441,0,0,0,1.744-.325,3.574,3.574,0,0,0,1.294-.913,4.036,4.036,0,0,0,.806-1.425,5.868,5.868,0,0,0,.281-1.875V-18.075h3.362V-7.25a8.346,8.346,0,0,1-.519,2.981,6.783,6.783,0,0,1-1.487,2.363,6.749,6.749,0,0,1-2.356,1.55A8.336,8.336,0,0,1,57.1.2a8.372,8.372,0,0,1-3.137-.556,6.749,6.749,0,0,1-2.356-1.55,6.783,6.783,0,0,1-1.487-2.363A8.345,8.345,0,0,1,49.6-7.25V-18.075h3.363V-7.263a5.868,5.868,0,0,0,.281,1.875,4.049,4.049,0,0,0,.813,1.431,3.6,3.6,0,0,0,1.3.919A4.441,4.441,0,0,0,57.1-2.713ZM73.85-9.475a5.2,5.2,0,0,0,1.656-.238,3.2,3.2,0,0,0,1.162-.656,2.636,2.636,0,0,0,.681-.994,3.436,3.436,0,0,0,.225-1.262,2.567,2.567,0,0,0-.906-2.113,4.335,4.335,0,0,0-2.769-.738H71.75v6ZM82.5,0H79.463a1.332,1.332,0,0,1-1.25-.675l-3.8-5.788a1.334,1.334,0,0,0-.469-.463,1.642,1.642,0,0,0-.756-.137H71.75V0H68.387V-18.075H73.9a11.46,11.46,0,0,1,3.156.381,6.038,6.038,0,0,1,2.162,1.069,4.181,4.181,0,0,1,1.244,1.644,5.405,5.405,0,0,1,.4,2.106,5.458,5.458,0,0,1-.269,1.725,4.992,4.992,0,0,1-.775,1.475,5.223,5.223,0,0,1-1.25,1.162,6.269,6.269,0,0,1-1.694.788,3.286,3.286,0,0,1,.6.444,3.154,3.154,0,0,1,.5.606Zm8.888-7V0h-3.35V-7L81.45-18.075h2.963a1.054,1.054,0,0,1,.694.212,1.791,1.791,0,0,1,.431.538l3.3,6.038q.287.538.506,1.012t.394.95q.162-.475.375-.95t.488-1.012l3.287-6.038a1.67,1.67,0,0,1,.412-.513,1.033,1.033,0,0,1,.7-.237h2.975Z" transform="translate(51.95 21.465)" fill="#eee"/>
  <path id="Path_94" data-name="Path 94" d="M4.545-5.175a3.352,3.352,0,0,0,1.1-.165,2.293,2.293,0,0,0,.8-.461,1.9,1.9,0,0,0,.491-.709A2.422,2.422,0,0,0,7.1-7.418a2.062,2.062,0,0,0-.634-1.605A2.778,2.778,0,0,0,4.545-9.6H2.82v4.425Zm0-5.573a5.953,5.953,0,0,1,1.774.236,3.407,3.407,0,0,1,1.249.671,2.705,2.705,0,0,1,.739,1.05A3.7,3.7,0,0,1,8.55-7.418a3.5,3.5,0,0,1-.263,1.372,2.953,2.953,0,0,1-.769,1.073,3.575,3.575,0,0,1-1.252.7,5.391,5.391,0,0,1-1.721.251H2.82V0H1.373V-10.748ZM17.01-1.185,17,0H10.38V-10.748H17v1.185H11.835v3.57H16.02v1.14H11.835v3.667Zm5.01-4.357A3.679,3.679,0,0,0,23.134-5.7a2.281,2.281,0,0,0,.81-.435,1.8,1.8,0,0,0,.491-.671,2.192,2.192,0,0,0,.165-.862,1.717,1.717,0,0,0-.63-1.447A3.06,3.06,0,0,0,22.08-9.6H20.49v4.058ZM26.985,0h-1.29a.636.636,0,0,1-.585-.308l-2.79-3.84a.827.827,0,0,0-.274-.259,1,1,0,0,0-.454-.079h-1.1V0H19.042V-10.748H22.08a6.637,6.637,0,0,1,1.763.206,3.364,3.364,0,0,1,1.226.6A2.387,2.387,0,0,1,25.785-9a3.146,3.146,0,0,1,.233,1.234,3.093,3.093,0,0,1-.18,1.065,2.813,2.813,0,0,1-.521.889,3.119,3.119,0,0,1-.832.671,4.121,4.121,0,0,1-1.114.42,1.437,1.437,0,0,1,.48.458Zm6.952-9.068a.552.552,0,0,1-.146.169.32.32,0,0,1-.191.056.535.535,0,0,1-.3-.128q-.172-.127-.431-.281a3.469,3.469,0,0,0-.623-.281,2.679,2.679,0,0,0-.881-.128,2.572,2.572,0,0,0-.859.131,1.839,1.839,0,0,0-.623.356,1.462,1.462,0,0,0-.379.529,1.678,1.678,0,0,0-.128.656,1.213,1.213,0,0,0,.221.746,1.906,1.906,0,0,0,.585.506,4.482,4.482,0,0,0,.825.364q.461.154.945.319t.945.371a3.324,3.324,0,0,1,.825.521,2.376,2.376,0,0,1,.585.773,2.571,2.571,0,0,1,.221,1.125,3.628,3.628,0,0,1-.24,1.324,3.052,3.052,0,0,1-.7,1.076,3.28,3.28,0,0,1-1.133.72A4.166,4.166,0,0,1,30.93.12a4.653,4.653,0,0,1-1.905-.379,4.47,4.47,0,0,1-1.462-1.024l.42-.69a.552.552,0,0,1,.146-.139.343.343,0,0,1,.191-.056.425.425,0,0,1,.221.079q.124.079.281.2t.36.262a2.975,2.975,0,0,0,.461.262,3.122,3.122,0,0,0,.589.2,3.207,3.207,0,0,0,.743.079A2.771,2.771,0,0,0,31.9-1.23a1.959,1.959,0,0,0,.686-.4,1.738,1.738,0,0,0,.431-.619,2.068,2.068,0,0,0,.15-.8,1.347,1.347,0,0,0-.221-.8,1.834,1.834,0,0,0-.581-.521,4.038,4.038,0,0,0-.825-.356l-.945-.3a10.024,10.024,0,0,1-.945-.356,3.053,3.053,0,0,1-.825-.525,2.412,2.412,0,0,1-.581-.806,2.872,2.872,0,0,1-.221-1.2,2.847,2.847,0,0,1,.221-1.1,2.816,2.816,0,0,1,.645-.945,3.151,3.151,0,0,1,1.042-.66,3.805,3.805,0,0,1,1.421-.248,4.519,4.519,0,0,1,1.639.285,3.871,3.871,0,0,1,1.3.825ZM39.75-5.175a3.352,3.352,0,0,0,1.1-.165,2.293,2.293,0,0,0,.8-.461,1.9,1.9,0,0,0,.491-.709,2.422,2.422,0,0,0,.165-.907,2.062,2.062,0,0,0-.634-1.605A2.778,2.778,0,0,0,39.75-9.6H38.025v4.425Zm0-5.573a5.953,5.953,0,0,1,1.774.236,3.407,3.407,0,0,1,1.249.671,2.705,2.705,0,0,1,.739,1.05,3.7,3.7,0,0,1,.244,1.372,3.5,3.5,0,0,1-.262,1.372,2.953,2.953,0,0,1-.769,1.073,3.575,3.575,0,0,1-1.252.7,5.391,5.391,0,0,1-1.721.251H38.025V0H36.577V-10.748ZM52.215-1.185,52.207,0H45.585V-10.748h6.622v1.185H47.04v3.57h4.185v1.14H47.04v3.667ZM61.56-2.22a.278.278,0,0,1,.21.1l.577.623a4.6,4.6,0,0,1-1.6,1.192A5.48,5.48,0,0,1,58.47.12a5.321,5.321,0,0,1-2.1-.4,4.619,4.619,0,0,1-1.612-1.125,5.085,5.085,0,0,1-1.035-1.736,6.486,6.486,0,0,1-.368-2.228A6.256,6.256,0,0,1,53.737-7.6a5.1,5.1,0,0,1,1.076-1.74,4.813,4.813,0,0,1,1.661-1.129,5.528,5.528,0,0,1,2.138-.4,5.207,5.207,0,0,1,2.025.368,5.1,5.1,0,0,1,1.545,1l-.48.667a.393.393,0,0,1-.116.124.333.333,0,0,1-.191.049.6.6,0,0,1-.33-.146,5.014,5.014,0,0,0-.51-.326,3.96,3.96,0,0,0-.788-.326A3.978,3.978,0,0,0,58.6-9.608a3.906,3.906,0,0,0-1.523.289,3.324,3.324,0,0,0-1.189.836,3.858,3.858,0,0,0-.776,1.335A5.327,5.327,0,0,0,54.84-5.37a5.185,5.185,0,0,0,.289,1.793,3.958,3.958,0,0,0,.787,1.331,3.328,3.328,0,0,0,1.178.829,3.749,3.749,0,0,0,1.466.285,6.048,6.048,0,0,0,.866-.056,3.537,3.537,0,0,0,.713-.176,3,3,0,0,0,.607-.3,4.328,4.328,0,0,0,.559-.439A.388.388,0,0,1,61.56-2.22ZM71.3-9.525h-3.48V0H66.375V-9.525H62.887v-1.222H71.3ZM74.347,0H72.892V-10.748h1.455ZM85.83-10.748,81.45,0H80.145l-4.38-10.748h1.162a.484.484,0,0,1,.315.1.6.6,0,0,1,.18.248l3.03,7.582q.1.255.191.555t.169.63q.075-.33.158-.63t.18-.555L84.172-10.4a.549.549,0,0,1,.176-.236.483.483,0,0,1,.319-.109Zm8.048,9.563L93.87,0H87.247V-10.748H93.87v1.185H88.7v3.57h4.185v1.14H88.7v3.667Z" transform="translate(51.95 38.465)" fill="#eee"/>
</svg>


