<svg xmlns="http://www.w3.org/2000/svg" width="110.823" height="36.098" viewBox="0 0 110.823 36.098">
  <text id="LUXURY_" data-name="LUXURY
" transform="translate(39.823 1.401)" fill="#eee" font-size="18" font-family="Lato-Bold, Lato" font-weight="700"><tspan x="0" y="14">LUXURY</tspan></text>
  <text id="PERSPECTIVE_" data-name="PERSPECTIVE
" transform="translate(39.823 20.467)" fill="#eee" font-size="11" font-family="Lato-Regular, Lato"><tspan x="0" y="9">PERSPECTIVE</tspan></text>
  <g id="Logo" transform="translate(0.546 1.019)">
    <g id="Polygon_1" data-name="Polygon 1" transform="translate(34.91 33.026) rotate(180)" fill="none">
      <path d="M17.455,0,34.91,25.617H0Z" stroke="none"/>
      <path d="M 17.45495223999023 3.551862716674805 L 3.782888412475586 23.61734008789063 L 31.12701606750488 23.61734008789063 L 17.45495223999023 3.551862716674805 M 17.45495223999023 0 L 34.9099006652832 25.61734008789063 L 3.814697265625e-06 25.61734008789063 L 17.45495223999023 0 Z" stroke="none" fill="#ceb068"/>
    </g>
    <path id="Path_1" data-name="Path 1" d="M882.166,198.21l4.548-7.524H912l4.451,7.541" transform="translate(-881.856 -190.66)" fill="none" stroke="#ceb068" stroke-width="2"/>
    <path id="Path_2" data-name="Path 2" d="M922.07,242.65l11.433,25.2,11.388-25.2" transform="translate(-916.052 -235.191)" fill="none" stroke="#ceb068" stroke-width="2"/>
    <line id="Line_4" data-name="Line 4" x1="1.144" y1="7.581" transform="translate(4.935)" fill="none" stroke="#ceb068" stroke-width="2"/>
    <path id="Path_3" data-name="Path 3" d="M8,7.664,9.3.1" transform="translate(20.839 -0.057)" fill="none" stroke="#ceb068" stroke-width="2"/>
    <path id="Path_4" data-name="Path 4" d="M922.5,199.155l11.431-7.433,11.336,7.433" transform="translate(-916.421 -191.548)" fill="none" stroke="#ceb068" stroke-width="2"/>
    <path id="Path_6" data-name="Path 6" d="M914.5,190.784l12.6,7.519,12.548-7.519" transform="translate(-909.565 -190.743)" fill="none" stroke="#ceb068" stroke-width="2"/>
  </g>
</svg>
