<svg id="call" xmlns="http://www.w3.org/2000/svg" width="21.51" height="21.51" viewBox="0 0 21.51 21.51">
  <path id="Path_42" data-name="Path 42" d="M0,0H21.51V21.51H0Z" fill="none"/>
  <path id="Path_43" data-name="Path 43" d="M18.245,14.1a10.256,10.256,0,0,1-3.164-.5.876.876,0,0,0-.905.215l-1.407,1.766A13.608,13.608,0,0,1,6.594,9.453L8.342,7.965a.915.915,0,0,0,.215-.914,10,10,0,0,1-.5-3.164A.9.9,0,0,0,7.168,3h-3.1C3.583,3,3,3.215,3,3.887A15.372,15.372,0,0,0,18.245,19.132a.94.94,0,0,0,.887-1.058V14.983A.9.9,0,0,0,18.245,14.1Z" transform="translate(-0.311 -0.311)" fill="#ceb068"/>
</svg>
